<?xml version="1.0" standalone="no"?>
<!DOCTYPE svg PUBLIC "-//W3C//DTD SVG 20010904//EN"
 "http://www.w3.org/TR/2001/REC-SVG-20010904/DTD/svg10.dtd">
<svg version="1.0" xmlns="http://www.w3.org/2000/svg"
 width="320.000000pt" height="320.000000pt" viewBox="0 0 320.000000 320.000000"
 preserveAspectRatio="xMidYMid meet">
<metadata>
Created by potrace 1.11, written by Peter Selinger 2001-2013
</metadata>
<g transform="translate(0.000000,320.000000) scale(0.100000,-0.100000)"
fill="#000000" stroke="none">
<path d="M1370 3075 c-243 -39 -503 -153 -692 -303 -567 -453 -735 -1223 -406
-1865 205 -400 582 -688 1030 -784 66 -14 129 -18 313 -18 218 0 236 2 340 28
293 74 531 210 735 424 202 210 332 457 389 740 30 144 30 451 1 593 -124 607
-608 1076 -1218 1181 -135 23 -361 24 -492 4z"/>
</g>
</svg>
