<?xml version="1.0" encoding="UTF-8" standalone="no"?>
<!-- Created with Inkscape (http://www.inkscape.org/) -->

<svg
   xmlns:dc="http://purl.org/dc/elements/1.1/"
   xmlns:cc="http://creativecommons.org/ns#"
   xmlns:rdf="http://www.w3.org/1999/02/22-rdf-syntax-ns#"
   xmlns:svg="http://www.w3.org/2000/svg"
   xmlns="http://www.w3.org/2000/svg"
   xmlns:sodipodi="http://sodipodi.sourceforge.net/DTD/sodipodi-0.dtd"
   xmlns:inkscape="http://www.inkscape.org/namespaces/inkscape"
   version="1.1"
   id="svg3781"
   width="552"
   height="552"
   viewBox="0 0 552 552"
   sodipodi:docname="ifsp.svg"
   inkscape:version="0.92.2 (5c3e80d, 2017-08-06)">
  <metadata
     id="metadata3787">
    <rdf:RDF>
      <cc:Work
         rdf:about="">
        <dc:format>image/svg+xml</dc:format>
        <dc:type
           rdf:resource="http://purl.org/dc/dcmitype/StillImage" />
        <dc:title></dc:title>
      </cc:Work>
    </rdf:RDF>
  </metadata>
  <defs
     id="defs3785" />
  <sodipodi:namedview
     pagecolor="#ffffff"
     bordercolor="#666666"
     borderopacity="1"
     objecttolerance="10"
     gridtolerance="10"
     guidetolerance="10"
     inkscape:pageopacity="0"
     inkscape:pageshadow="2"
     inkscape:window-width="1680"
     inkscape:window-height="997"
     id="namedview3783"
     showgrid="false"
     inkscape:zoom="0.42753623"
     inkscape:cx="276"
     inkscape:cy="276"
     inkscape:window-x="1672"
     inkscape:window-y="-8"
     inkscape:window-maximized="1"
     inkscape:current-layer="svg3781" />
  <g
     id="g3791"
     transform="translate(3.38983e-7,4.6779653)">
    <path
       style="fill:#67b72c;stroke-width:1.33333337"
       d="m 100.55792,528.04153 c -4.653493,-1.88253 -9.678687,-9.04088 -10.563683,-15.04786 -0.458656,-3.11319 -0.644992,-24.56034 -0.41408,-47.66034 0.589035,-58.92552 -4.800442,-54 59.086513,-54 43.95881,0 46.91685,0.15134 50.97845,2.60808 8.15431,4.93232 8.35488,6.29252 8.35488,56.65964 0,50.297 -0.1156,51.06948 -8.39807,56.11959 -4.02313,2.45305 -6.9139,2.59815 -50.2686,2.5232 -25.3,-0.0437 -47.24893,-0.58479 -48.77541,-1.20231 z m 127.23389,-1.98837 c -2.65497,-1.80411 -5.49425,-5.19364 -6.30952,-7.53231 -0.97414,-2.79444 -1.48058,-19.61037 -1.4773,-49.05314 0.005,-42.05486 0.16424,-45.06223 2.60301,-49.06194 5.6138,-9.2069 4.77045,-9.07244 56.90225,-9.07244 64.34687,0 59.15135,-5.18664 59.15435,59.05312 10e-4,41.3791 -0.17411,44.73178 -2.59809,49.48319 -4.73479,9.28093 -5.8476,9.46369 -57.62516,9.46369 H 232.61903 Z M 104.36673,398.6218 c -6.758143,-1.47425 -10.590553,-4.70641 -12.97093,-10.93933 -1.916476,-5.01823 -2.148477,-11.4337 -1.798092,-49.72206 0.372077,-40.6587 0.595544,-44.2798 2.975331,-48.21288 5.184857,-8.56901 5.574096,-8.62341 58.402791,-8.16286 L 198.61832,282 l 4.35751,4.35753 4.3575,4.35754 0.35552,47.64246 c 0.49508,66.34203 5.42386,60.9297 -55.63132,61.08904 -23.86497,0.0623 -45.32583,-0.30886 -47.6908,-0.82477 z m 129.7001,-0.16124 c -2.89659,-0.65796 -6.42939,-2.23076 -7.8507,-3.49509 C 220.38099,389.77472 220,386.40584 220,340 c 0,-48.89719 0.33004,-51.13527 8.25309,-55.96583 4.20486,-2.56361 6.62046,-2.69086 51.08024,-2.69086 44.45979,0 46.87539,0.1272 51.08024,2.69086 7.92966,4.83459 8.25332,7.04138 8.25103,56.25634 -0.003,49.68669 -0.22643,51.03954 -9.33127,56.3308 -4.41054,2.56318 -7.00832,2.7209 -47.33333,2.87378 -23.46667,0.0889 -45.0366,-0.37657 -47.93317,-1.03453 z m 122.24692,-4.35676 -4.98042,-4.56285 -0.38186,-47.4095 c -0.42311,-52.5287 -0.35427,-53.02248 8.11326,-58.18542 4.02078,-2.45162 7.00643,-2.60302 51.42547,-2.60771 l 47.15685,-0.005 5.04444,5.04442 c 6.63736,6.63738 6.9543,9.58523 6.41016,59.62224 -0.3828,35.20095 -0.71764,40.51719 -2.79089,44.31076 -4.51184,8.25599 -5.20295,8.35626 -57.59747,8.35626 H 361.29417 Z M 100.09478,266.99793 c -2.514537,-1.2822 -5.814537,-4.02526 -7.333333,-6.0957 C 90.091467,257.26248 90,255.57645 90,210 c 0,-45.57645 0.09147,-47.26248 2.761447,-50.90223 5.174285,-7.05365 10.013243,-8.42313 29.905223,-8.46345 l 18,-0.0365 L 132,147.6322 c -11.87496,-4.06336 -20.76903,-9.52151 -28.66667,-17.59224 -26.032869,-26.60344 -25.587882,-69.349627 0.99626,-95.702403 36.7402,-36.4204386 98.77802,-19.796256 113.18162,30.32911 l 2.29882,8 0.1,-19.333334 c 0.0864,-16.705218 0.45313,-19.912545 2.698,-23.594221 5.61377,-9.206908 4.77042,-9.072445 56.90222,-9.072445 64.62047,0 59.38164,-5.400002 58.85584,60.666666 -0.33278,41.815047 -0.58548,46.323137 -2.7775,49.551797 -5.08767,7.49367 -7.17696,7.78154 -56.47756,7.78154 -41.18352,0 -45.55196,-0.21416 -49.69548,-2.43636 -7.64734,-4.10131 -9.40278,-9.189 -9.5033,-27.54284 l -0.0877,-16.020803 -1.93191,7.183565 C 211.82691,122.40483 195.2324,139.68253 172,147.63224 l -8.66667,2.96559 15.04283,0.0344 c 17.43444,0.0399 22.92499,1.73001 26.923,8.28752 2.56077,4.20018 2.69111,6.62782 2.69585,50.21206 0.005,52.21956 -0.0832,52.73658 -9.87326,57.47591 -5.32183,2.57624 -8.03659,2.72548 -49.54271,2.72353 -39.17175,-0.001 -44.40594,-0.25374 -48.48426,-2.33333 z m 130.59846,0 c -2.55204,-1.2822 -6.00204,-4.37 -7.66667,-6.86177 C 220.02769,255.64711 220,255.18936 220,210.11536 c 0,-50.90664 0.18789,-52.04245 9.43636,-57.04399 4.23452,-2.29002 7.95163,-2.44169 51.54289,-2.10302 l 46.97924,0.36498 5.02076,5.02175 5.02075,5.02175 v 47.87969 c 0,46.3266 -0.0896,48.00183 -2.76144,51.64492 -6.01905,8.20696 -7.48363,8.42775 -55.90523,8.42775 -39.23174,0 -44.50284,-0.25264 -48.64009,-2.33126 z M 359.06473,136.05397 c -8.29556,-5.05809 -8.39806,-5.75174 -8.39806,-56.830378 0,-44.216143 0.1192,-46.434979 2.7198,-50.642895 5.13373,-8.30655 8.38818,-8.76748 58.71248,-8.315454 49.52565,0.44485 49.28238,0.402602 54.20664,9.413981 2.13026,3.898383 2.36108,8.823403 2.36108,50.379415 0,51.126251 0.11826,50.396081 -9.07244,56.000031 -4.006,2.44261 -7.01271,2.59802 -50.2609,2.59802 -43.27654,0 -46.25272,-0.15409 -50.2686,-2.60272 z"
       id="path3795"
       inkscape:connector-curvature="0" />
    <path
       style="fill:#d8241b;stroke-width:1.33333337"
       d="M 138.07069,149.24947 C 120.98222,146.39047 101.03147,131.52772 92.374923,115.20741 68.098411,69.438557 100.58055,14.666667 152,14.666667 c 60.25341,0 90.46801,73.416445 47.81067,116.172003 -15.82876,15.86521 -37.79804,22.41644 -61.73998,18.4108 z"
       id="path3793"
       inkscape:connector-curvature="0" />
  </g>
</svg>
