<?xml version="1.0" encoding="UTF-8" standalone="no"?>
<!-- Created with Inkscape (http://www.inkscape.org/) -->

<svg
   xmlns:dc="http://purl.org/dc/elements/1.1/"
   xmlns:cc="http://creativecommons.org/ns#"
   xmlns:rdf="http://www.w3.org/1999/02/22-rdf-syntax-ns#"
   xmlns:svg="http://www.w3.org/2000/svg"
   xmlns="http://www.w3.org/2000/svg"
   xmlns:sodipodi="http://sodipodi.sourceforge.net/DTD/sodipodi-0.dtd"
   xmlns:inkscape="http://www.inkscape.org/namespaces/inkscape"
   version="1.1"
   id="svg3755"
   width="400"
   height="228"
   viewBox="0 0 400 228"
   sodipodi:docname="logo-cpqd.svg"
   inkscape:version="0.92.2 (5c3e80d, 2017-08-06)">
  <metadata
     id="metadata3761">
    <rdf:RDF>
      <cc:Work
         rdf:about="">
        <dc:format>image/svg+xml</dc:format>
        <dc:type
           rdf:resource="http://purl.org/dc/dcmitype/StillImage" />
        <dc:title></dc:title>
      </cc:Work>
    </rdf:RDF>
  </metadata>
  <defs
     id="defs3759" />
  <sodipodi:namedview
     pagecolor="#ffffff"
     bordercolor="#666666"
     borderopacity="1"
     objecttolerance="10"
     gridtolerance="10"
     guidetolerance="10"
     inkscape:pageopacity="0"
     inkscape:pageshadow="2"
     inkscape:window-width="1680"
     inkscape:window-height="997"
     id="namedview3757"
     showgrid="false"
     inkscape:zoom="0.71"
     inkscape:cx="200"
     inkscape:cy="114"
     inkscape:window-x="1672"
     inkscape:window-y="-8"
     inkscape:window-maximized="1"
     inkscape:current-layer="svg3755" />
  <g
     id="g3765"
     transform="translate(3.6253521e-6,-4.22535)">
    <path
       style="fill:#978c7c;stroke-width:1.33333337"
       d="M 215.14928,191.03351 C 217.09163,184.30828 224,157.65743 224,156.88956 224,156.40029 218.42605,156 211.61347,156 c -28.78899,0 -41.6727,-8.79739 -40.67676,-27.77533 l 0.39662,-7.558 12,-0.85205 c 13.3936,-0.95099 21.48582,-2.81789 29.13968,-6.7226 l 5.15467,-2.62972 -2.14717,3.06553 c -1.18095,1.68603 -2.14718,5.61818 -2.14718,8.73811 0,7.19849 3.73192,10.0934 12.22443,9.48271 l 5.77557,-0.41532 2.89062,-10.66666 c 4.37181,-16.13242 4.45237,-15.84502 -4.1913,-14.95291 l -7.30068,0.75349 4.63806,-4.77565 c 2.55092,-2.626609 6.20664,-7.981741 8.12381,-11.900293 l 3.48576,-7.12464 h 24.40272 24.40273 l -1.41149,5 c -0.77632,2.75 -7.53669,27.500003 -15.02305,55.000003 l -13.61156,50 -21.63663,0.36684 c -20.1862,0.34225 -21.5908,0.20818 -20.95304,-2 z M 70.312623,154.54927 C 56.530701,151.30228 46.441815,141.76216 43.914205,129.58673 41.945855,120.10523 43.185073,109.20092 47.89562,94.552888 55.585124,70.641423 72.100977,54.075925 95.583227,46.72194 c 8.942863,-2.800656 41.736423,-5.352423 41.768123,-3.250105 0.009,0.657157 -1.28098,6.144832 -2.86863,12.194832 l -2.88662,11 h -7.47352 c -18.79773,0 -27.022808,8.137346 -33.375887,33.019901 -3.872718,15.167942 -3.697944,24.816722 0.526034,29.040702 C 94.12812,131.58267 95.74336,132 103.93939,132 c 5.16667,0 9.40205,0.45 9.41195,1 0.01,0.55 -1.28097,5.95 -2.86861,12 l -2.88663,11 -16.131384,-0.13393 c -8.87226,-0.0737 -18.390703,-0.66623 -21.152093,-1.3168 z m 40.394947,0.48376 c 0.0225,-0.56816 6.77762,-25.93303 15.0114,-56.366363 l 14.97051,-55.333334 h 37.98859 c 33.55777,0 38.72286,0.283323 44.28401,2.42913 16.06231,6.197749 19.74816,23.13145 9.49561,43.625085 -9.58633,19.161962 -27.12686,27.945782 -55.80526,27.945782 H 164.10279 L 162.54563,123 c -0.85644,3.11667 -3.18334,11.66667 -5.1709,19 l -3.61372,13.33333 -21.54717,0.36636 c -11.85095,0.20151 -21.52877,-0.0985 -21.50627,-0.66666 z m 75.41762,-64.237269 c 4.1947,-1.905036 5.96978,-3.75676 7.66666,-7.997698 2.78042,-6.948942 2.76438,-8.489854 -0.1252,-12.019583 -1.59494,-1.948304 -4.46877,-3.099213 -9.08142,-3.636932 l -6.74811,-0.786656 -2.99664,11.155888 C 173.19233,83.646517 171.53855,89.716667 171.1654,91 c -0.56303,1.936363 0.18749,2.328352 4.4114,2.304051 2.79943,-0.01611 7.54619,-1.144836 10.54837,-2.50829 z m 84.56218,64.870909 c 0.012,-0.18334 1.42158,-5.43334 3.13375,-11.66667 l 3.11305,-11.33333 6.88594,-0.85676 c 12.95009,-1.61128 19.67337,-10.27079 25.40576,-32.722315 5.64914,-22.125531 2.71528,-31.469126 -9.94056,-31.658058 l -6.44442,-0.0962 -1.98786,6.333334 L 288.86515,80 h -21.09924 c -19.23016,0 -21.09354,-0.206699 -21.03483,-2.333333 0.0355,-1.283334 1.98951,-9.533334 4.3424,-18.333334 l 4.278,-16 29.32427,-0.372142 c 42.04528,-0.533582 55.81092,2.286001 65.3035,13.375956 10.38598,12.133661 9.55408,35.325582 -2.13321,59.471503 -12.54103,25.90974 -35.94709,40.11747 -66.17937,40.17164 -6.05,0.0107 -10.99068,-0.13026 -10.9793,-0.31362 z"
       id="path3769"
       inkscape:connector-curvature="0" />
    <path
       style="fill:#0072c5;stroke-width:1.33333337"
       d="m 110.96881,154.33333 c 0.3231,-0.91666 7.13729,-26.13727 15.14265,-56.045791 l 14.55521,-54.379127 40,0.379127 c 37.55544,0.355958 40.32594,0.549186 45.33333,3.161777 2.93333,1.530457 6.73299,4.830457 8.44367,7.333333 2.74226,4.012175 3.05782,5.812935 2.66666,15.217351 -0.92014,22.122128 -14.46838,38.43858 -37.13266,44.71969 -3.28772,0.91115 -12.82519,2.02196 -21.19438,2.46847 L 163.56657,118 l -3.61085,13.33333 c -1.98597,7.33334 -4.31157,15.88334 -5.16801,19 L 153.23055,156 h -21.42459 c -16.56409,0 -21.29133,-0.37811 -20.83715,-1.66667 z M 186.55359,90.997928 C 191.59273,88.418085 196,81.320064 196,75.784243 c 0,-5.154071 -5.56216,-9.117576 -12.79508,-9.117576 -5.66589,0 -5.79519,0.101093 -7.24811,5.666666 -0.81362,3.116667 -2.33674,8.625568 -3.38473,12.242002 -1.04797,3.616434 -1.90541,7.066434 -1.90541,7.666666 0,2.001742 11.27093,1.119138 15.88692,-1.244073 z m 84.1448,64.668742 c 0.0175,-0.18334 1.43128,-5.12919 3.14186,-10.99079 3.33707,-11.43501 2.73192,-10.87676 14.39032,-13.27523 9.16436,-1.88538 17.00326,-14.11761 21.79712,-34.013361 5.34082,-22.16576 1.83239,-30.720622 -12.59881,-30.720622 -4.94632,0 -5.16136,0.194812 -6.62312,6 l -1.51083,6 H 267.9808 c -11.72277,0 -21.30484,-0.45 -21.29348,-1 0.012,-0.55 2.02685,-8.5 4.47889,-17.666667 l 4.45826,-16.666667 33.85442,0.366695 c 18.61995,0.201681 36.99847,0.992979 40.84116,1.758439 9.37439,1.867368 18.83668,8.410537 22.95716,15.874866 2.85151,5.165568 3.30586,7.668864 3.267,18 -0.13925,37.016207 -23.62025,67.524877 -57.49506,74.702867 -7.48758,1.5866 -28.46136,2.79281 -28.35076,1.63047 z"
       id="path3767"
       inkscape:connector-curvature="0" />
  </g>
</svg>
