<?xml version="1.0" encoding="UTF-8" standalone="no"?>
<!-- Created with Inkscape (http://www.inkscape.org/) -->

<svg
   xmlns:dc="http://purl.org/dc/elements/1.1/"
   xmlns:cc="http://creativecommons.org/ns#"
   xmlns:rdf="http://www.w3.org/1999/02/22-rdf-syntax-ns#"
   xmlns:svg="http://www.w3.org/2000/svg"
   xmlns="http://www.w3.org/2000/svg"
   xmlns:sodipodi="http://sodipodi.sourceforge.net/DTD/sodipodi-0.dtd"
   xmlns:inkscape="http://www.inkscape.org/namespaces/inkscape"
   version="1.1"
   id="svg3699"
   width="200"
   height="200"
   viewBox="0 0 200 200"
   sodipodi:docname="venturus.svg"
   inkscape:version="0.92.2 (5c3e80d, 2017-08-06)">
  <metadata
     id="metadata3705">
    <rdf:RDF>
      <cc:Work
         rdf:about="">
        <dc:format>image/svg+xml</dc:format>
        <dc:type
           rdf:resource="http://purl.org/dc/dcmitype/StillImage" />
        <dc:title></dc:title>
      </cc:Work>
    </rdf:RDF>
  </metadata>
  <defs
     id="defs3703" />
  <sodipodi:namedview
     pagecolor="#ffffff"
     bordercolor="#666666"
     borderopacity="1"
     objecttolerance="10"
     gridtolerance="10"
     guidetolerance="10"
     inkscape:pageopacity="0"
     inkscape:pageshadow="2"
     inkscape:window-width="1680"
     inkscape:window-height="997"
     id="namedview3701"
     showgrid="false"
     inkscape:zoom="2.9274221"
     inkscape:cx="78.689012"
     inkscape:cy="103.81568"
     inkscape:window-x="1672"
     inkscape:window-y="-8"
     inkscape:window-maximized="1"
     inkscape:current-layer="svg3699" />
  <path
     style="fill:#18b595"
     d="m 90.024797,191.13653 c -38.25169,-22.22322 -67.19083,-40.22874 -69.21243,-43.06299 -2.15358,-3.01928 -2.32644,-4.46594 -2.95115,-24.69713 -0.36497,-11.8195 -0.36497,-31.39451 0,-43.500014 0.62532,-20.741198 0.7948,-22.193976 2.93989,-25.201337 1.5812,-2.216796 12.7272,-9.426392 36.5,-23.609396 41.91214,-25.0050454 40.07573,-24.0495211 44.961223,-23.39424 4.42745,0.5938458 70.9095,39.707367 76.52225,45.020491 1.79287,1.697169 3.70286,4.680722 4.24442,6.630119 1.30177,4.68588 1.30177,79.402847 0,84.088727 -0.54156,1.94939 -2.45155,4.93295 -4.24442,6.63012 -1.79288,1.69716 -18.89075,12.41924 -37.99527,23.82684 -40.848203,24.39108 -39.37053,23.88841 -50.764513,17.26881 z m 18.320943,-43.06085 c 1.33904,-0.87737 12.93042,-14.10838 25.75863,-29.40225 12.82821,-15.29387 25.31287,-30.16954 27.7437,-33.05704 l 4.41968,-5.25 h -12.03641 -12.03641 l -18.83506,22.65809 c -24.907083,29.96256 -23.16927,28.03441 -24.067073,26.70305 -0.4224,-0.62637 -9.768,-11.97862 -20.768,-25.22721 l -20,-24.088363 -11.75,-0.02278 c -6.4625,-0.01253 -11.75,0.215687 -11.75,0.50715 0,0.291463 12.34776,15.271922 27.43947,33.289923 17.26421,20.61174 28.6671,33.39127 30.75,34.46236 3.98046,2.04689 11.571813,1.75946 15.131473,-0.57292 z"
     id="path3753"
     inkscape:connector-curvature="0" />
</svg>
